<svg width="50" height="50" viewBox="0 0 50 50" fill="none" xmlns="http://www.w3.org/2000/svg">
<g clip-path="url(#clip0_12_12)">
<path d="M14.6459 0.175088C11.9859 0.300588 10.1694 0.725088 8.58142 1.34909C6.93792 1.98959 5.54492 2.84909 4.15892 4.24009C2.77292 5.63109 1.91942 7.02509 1.28342 8.67109C0.667918 10.2626 0.250918 12.0806 0.133418 14.7421C0.0159185 17.4036 -0.0100815 18.2591 0.00291847 25.0481C0.0159185 31.8371 0.0459185 32.6881 0.174918 35.3551C0.301918 38.0146 0.724918 39.8306 1.34892 41.4191C1.99042 43.0626 2.84892 44.4551 4.24042 45.8416C5.63192 47.2281 7.02492 48.0796 8.67492 48.7166C10.2649 49.3311 12.0834 49.7501 14.7444 49.8666C17.4054 49.9831 18.2619 50.0101 25.0489 49.9971C31.8359 49.9841 32.6904 49.9541 35.3569 49.8276C38.0234 49.7011 39.8299 49.2751 41.4189 48.6541C43.0624 48.0111 44.4559 47.1541 45.8414 45.7621C47.2269 44.3701 48.0799 42.9751 48.7154 41.3281C49.3314 39.7381 49.7499 37.9196 49.8654 35.2606C49.9819 32.5921 50.0094 31.7401 49.9964 24.9521C49.9834 18.1641 49.9529 17.3131 49.8264 14.6471C49.6999 11.9811 49.2764 10.1706 48.6529 8.58109C48.0104 6.93759 47.1529 5.54609 45.7619 4.15859C44.3709 2.77109 42.9749 1.91859 41.3284 1.28459C39.7374 0.669088 37.9199 0.249588 35.2589 0.134588C32.5979 0.0195882 31.7414 -0.00991183 24.9519 0.00308817C18.1624 0.0160882 17.3124 0.0450882 14.6459 0.175088ZM14.9379 45.3691C12.5004 45.2631 11.1769 44.8581 10.2949 44.5191C9.12692 44.0691 8.29492 43.5251 7.41592 42.6546C6.53692 41.7841 5.99692 40.9491 5.54092 39.7836C5.19842 38.9016 4.78592 37.5796 4.67192 35.1421C4.54792 32.5076 4.52192 31.7166 4.50742 25.0421C4.49292 18.3676 4.51842 17.5776 4.63392 14.9421C4.73792 12.5066 5.14542 11.1816 5.48392 10.3001C5.93392 9.13059 6.47592 8.30009 7.34842 7.42159C8.22092 6.54309 9.05342 6.00209 10.2199 5.54609C11.1009 5.20209 12.4229 4.79309 14.8594 4.67709C17.4959 4.55209 18.2859 4.52709 24.9594 4.51259C31.6329 4.49809 32.4249 4.52309 35.0624 4.63909C37.4979 4.74509 38.8234 5.14859 39.7039 5.48909C40.8724 5.93909 41.7039 6.47959 42.5824 7.35359C43.4609 8.22759 44.0024 9.05709 44.4584 10.2261C44.8029 11.1046 45.2119 12.4261 45.3269 14.8641C45.4524 17.5006 45.4809 18.2911 45.4929 24.9641C45.5049 31.6371 45.4814 32.4296 45.3659 35.0641C45.2594 37.5016 44.8554 38.8256 44.5159 39.7086C44.0659 40.8761 43.5234 41.7086 42.6504 42.5866C41.7774 43.4646 40.9459 44.0056 39.7789 44.4616C38.8989 44.8051 37.5754 45.2151 35.1409 45.3311C32.5044 45.4551 31.7144 45.4811 25.0384 45.4956C18.3624 45.5101 17.5749 45.4831 14.9384 45.3691M35.3184 11.6386C35.3194 12.232 35.4963 12.8117 35.8269 13.3046C36.1574 13.7974 36.6266 14.1811 37.1752 14.4072C37.7238 14.6333 38.3272 14.6917 38.909 14.5749C39.4907 14.4581 40.0248 14.1714 40.4436 13.751C40.8624 13.3307 41.1472 12.7955 41.2619 12.2133C41.3765 11.6311 41.316 11.028 41.0878 10.4802C40.8597 9.93244 40.4743 9.46462 39.9802 9.13592C39.4862 8.80721 38.9058 8.6324 38.3124 8.63359C37.5169 8.63518 36.7547 8.95264 36.1932 9.51616C35.6318 10.0797 35.3171 10.8431 35.3184 11.6386ZM12.1634 25.0251C12.1774 32.1151 17.9354 37.8496 25.0239 37.8361C32.1124 37.8226 37.8509 32.0651 37.8374 24.9751C37.8239 17.8851 32.0644 12.1491 24.9749 12.1631C17.8854 12.1771 12.1499 17.9361 12.1634 25.0251ZM16.6664 25.0161C16.6632 23.3679 17.1487 21.7557 18.0617 20.3835C18.9747 19.0112 20.2741 17.9405 21.7956 17.3068C23.3171 16.673 24.9923 16.5047 26.6095 16.823C28.2267 17.1414 29.7131 17.9321 30.8809 19.0953C32.0487 20.2584 32.8453 21.7417 33.17 23.3576C33.4948 24.9735 33.3331 26.6494 32.7054 28.1734C32.0776 29.6974 31.0121 31.0011 29.6435 31.9195C28.2748 32.8379 26.6646 33.3298 25.0164 33.3331C23.922 33.3354 22.8379 33.1221 21.8259 32.7053C20.814 32.2886 19.894 31.6766 19.1186 30.9042C18.3432 30.1319 17.7276 29.2144 17.3068 28.2041C16.8861 27.1938 16.6685 26.1105 16.6664 25.0161Z" fill="#EDECEA"/>
</g>
<defs>
<clipPath id="clip0_12_12">
<rect width="50" height="50" fill="white"/>
</clipPath>
</defs>
</svg>
