<svg width="66" height="50" viewBox="0 0 66 50" fill="none" xmlns="http://www.w3.org/2000/svg">
<g clip-path="url(#clip0_12_14)">
<path d="M47.5499 42.2528H39.2809V30.7459C39.2809 28.0019 39.2258 24.4697 34.9802 24.4697C30.6735 24.4697 30.0146 27.4593 30.0146 30.5461V42.252H21.7456V18.5891H29.6838V21.8229H29.7949C30.5893 20.6159 31.7373 19.623 33.1165 18.9499C34.4958 18.2768 36.0547 17.9487 37.6272 18.0006C46.0081 18.0006 47.5533 22.8991 47.5533 29.2717L47.5499 42.2528ZM12.4155 15.3546C11.4664 15.3548 10.5386 15.1048 9.74936 14.6364C8.96014 14.168 8.34501 13.5022 7.98166 12.7231C7.61831 11.944 7.52308 11.0867 7.70807 10.2595C7.89306 9.43232 8.34994 8.67248 9.02091 8.07604C9.69188 7.47961 10.5468 7.07336 11.4776 6.90868C12.4084 6.74401 13.3733 6.8283 14.2501 7.15089C15.127 7.47348 15.8766 8.01989 16.404 8.72101C16.9314 9.42214 17.213 10.2465 17.2132 11.0898C17.2133 11.6498 17.0893 12.2043 16.8482 12.7217C16.6072 13.239 16.2539 13.7091 15.8083 14.1052C15.3628 14.5012 14.8339 14.8153 14.2517 15.0297C13.6696 15.2441 13.0456 15.3545 12.4155 15.3546ZM16.5499 42.2528H8.27238V18.5891H16.5499V42.2528ZM51.6723 0.00313443H4.11726C3.03789 -0.00768925 1.9978 0.362712 1.22561 1.03294C0.453424 1.70318 0.0123186 2.6184 -0.000854492 3.57751V46.0101C0.0118677 46.9697 0.452715 47.8855 1.22487 48.5564C1.99703 49.2274 3.03736 49.5985 4.11726 49.5883H51.6723C52.7543 49.6003 53.7976 49.2303 54.5728 48.5594C55.348 47.8885 55.7918 46.9716 55.8068 46.0101V3.57445C55.7913 2.61344 55.3472 1.69717 54.572 1.02696C53.7968 0.35674 52.7538 -0.012603 51.6723 7.16198e-05" fill="#EDECEA"/>
</g>
<defs>
<clipPath id="clip0_12_14">
<rect width="66" height="50" fill="white"/>
</clipPath>
</defs>
</svg>
